<svg id="visual" viewBox="0 0 960 300" width="960" height="300" xmlns="http://www.w3.org/2000/svg" xmlns:xlink="http://www.w3.org/1999/xlink" version="1.1"><rect x="0" y="0" width="960" height="300" fill="#202731"></rect><path d="M0 83L14.5 90C29 97 58 111 87.2 113C116.3 115 145.7 105 174.8 94.7C204 84.3 233 73.7 262 75.5C291 77.3 320 91.7 349 94.8C378 98 407 90 436.2 84.8C465.3 79.7 494.7 77.3 523.8 83.7C553 90 582 105 611 102.5C640 100 669 80 698 78.8C727 77.7 756 95.3 785.2 96.7C814.3 98 843.7 83 872.8 79.3C902 75.7 931 83.3 945.5 87.2L960 91L960 0L945.5 0C931 0 902 0 872.8 0C843.7 0 814.3 0 785.2 0C756 0 727 0 698 0C669 0 640 0 611 0C582 0 553 0 523.8 0C494.7 0 465.3 0 436.2 0C407 0 378 0 349 0C320 0 291 0 262 0C233 0 204 0 174.8 0C145.7 0 116.3 0 87.2 0C58 0 29 0 14.5 0L0 0Z" fill="#ff6f62"></path><path d="M0 46L14.5 48.7C29 51.3 58 56.7 87.2 57.8C116.3 59 145.7 56 174.8 54.7C204 53.3 233 53.7 262 58.2C291 62.7 320 71.3 349 72.2C378 73 407 66 436.2 64.8C465.3 63.7 494.7 68.3 523.8 72.7C553 77 582 81 611 80C640 79 669 73 698 75.3C727 77.7 756 88.3 785.2 92C814.3 95.7 843.7 92.3 872.8 92.8C902 93.3 931 97.7 945.5 99.8L960 102L960 0L945.5 0C931 0 902 0 872.8 0C843.7 0 814.3 0 785.2 0C756 0 727 0 698 0C669 0 640 0 611 0C582 0 553 0 523.8 0C494.7 0 465.3 0 436.2 0C407 0 378 0 349 0C320 0 291 0 262 0C233 0 204 0 174.8 0C145.7 0 116.3 0 87.2 0C58 0 29 0 14.5 0L0 0Z" fill="#f76455"></path><path d="M0 65L14.5 64.8C29 64.7 58 64.3 87.2 64.2C116.3 64 145.7 64 174.8 63.7C204 63.3 233 62.7 262 62.5C291 62.3 320 62.7 349 59C378 55.3 407 47.7 436.2 44.2C465.3 40.7 494.7 41.3 523.8 47C553 52.7 582 63.3 611 61.5C640 59.7 669 45.3 698 44C727 42.7 756 54.3 785.2 60C814.3 65.7 843.7 65.3 872.8 63.5C902 61.7 931 58.3 945.5 56.7L960 55L960 0L945.5 0C931 0 902 0 872.8 0C843.7 0 814.3 0 785.2 0C756 0 727 0 698 0C669 0 640 0 611 0C582 0 553 0 523.8 0C494.7 0 465.3 0 436.2 0C407 0 378 0 349 0C320 0 291 0 262 0C233 0 204 0 174.8 0C145.7 0 116.3 0 87.2 0C58 0 29 0 14.5 0L0 0Z" fill="#ee5849"></path><path d="M0 35L14.5 34.8C29 34.7 58 34.3 87.2 34.7C116.3 35 145.7 36 174.8 38C204 40 233 43 262 41.7C291 40.3 320 34.7 349 31.8C378 29 407 29 436.2 29.2C465.3 29.3 494.7 29.7 523.8 32C553 34.3 582 38.7 611 42.8C640 47 669 51 698 51.8C727 52.7 756 50.3 785.2 49.3C814.3 48.3 843.7 48.7 872.8 50.2C902 51.7 931 54.3 945.5 55.7L960 57L960 0L945.5 0C931 0 902 0 872.8 0C843.7 0 814.3 0 785.2 0C756 0 727 0 698 0C669 0 640 0 611 0C582 0 553 0 523.8 0C494.7 0 465.3 0 436.2 0C407 0 378 0 349 0C320 0 291 0 262 0C233 0 204 0 174.8 0C145.7 0 116.3 0 87.2 0C58 0 29 0 14.5 0L0 0Z" fill="#e64c3d"></path><path d="M0 31L14.5 30.5C29 30 58 29 87.2 28.3C116.3 27.7 145.7 27.3 174.8 27.3C204 27.3 233 27.7 262 26.7C291 25.7 320 23.3 349 22.8C378 22.3 407 23.7 436.2 24.7C465.3 25.7 494.7 26.3 523.8 24C553 21.7 582 16.3 611 15.5C640 14.7 669 18.3 698 23C727 27.7 756 33.3 785.2 33.3C814.3 33.3 843.7 27.7 872.8 27.2C902 26.7 931 31.3 945.5 33.7L960 36L960 0L945.5 0C931 0 902 0 872.8 0C843.7 0 814.3 0 785.2 0C756 0 727 0 698 0C669 0 640 0 611 0C582 0 553 0 523.8 0C494.7 0 465.3 0 436.2 0C407 0 378 0 349 0C320 0 291 0 262 0C233 0 204 0 174.8 0C145.7 0 116.3 0 87.2 0C58 0 29 0 14.5 0L0 0Z" fill="#dd3f31"></path></svg>