<svg id="visual" viewBox="0 0 960 300" width="960" height="300" xmlns="http://www.w3.org/2000/svg" xmlns:xlink="http://www.w3.org/1999/xlink" version="1.1"><rect x="0" y="0" width="960" height="300" fill="#ff0066"></rect><path d="M0 189L10 182C20 175 40 161 60 158.8C80 156.7 100 166.3 120 176.7C140 187 160 198 180 200.2C200 202.3 220 195.7 240 185.8C260 176 280 163 300 152.8C320 142.7 340 135.3 360 138.5C380 141.7 400 155.3 420 158.2C440 161 460 153 480 160.2C500 167.3 520 189.7 540 201C560 212.3 580 212.7 600 211.5C620 210.3 640 207.7 660 201.5C680 195.3 700 185.7 720 183.3C740 181 760 186 780 184C800 182 820 173 840 169.8C860 166.7 880 169.3 900 166.3C920 163.3 940 154.7 950 150.3L960 146L960 0L950 0C940 0 920 0 900 0C880 0 860 0 840 0C820 0 800 0 780 0C760 0 740 0 720 0C700 0 680 0 660 0C640 0 620 0 600 0C580 0 560 0 540 0C520 0 500 0 480 0C460 0 440 0 420 0C400 0 380 0 360 0C340 0 320 0 300 0C280 0 260 0 240 0C220 0 200 0 180 0C160 0 140 0 120 0C100 0 80 0 60 0C40 0 20 0 10 0L0 0Z" fill="#aa3f73"></path><path d="M0 161L10 158.7C20 156.3 40 151.7 60 146.5C80 141.3 100 135.7 120 132.2C140 128.7 160 127.3 180 120.8C200 114.3 220 102.7 240 107.7C260 112.7 280 134.3 300 140.5C320 146.7 340 137.3 360 139.2C380 141 400 154 420 161.3C440 168.7 460 170.3 480 167.7C500 165 520 158 540 146.7C560 135.3 580 119.7 600 110.3C620 101 640 98 660 106.8C680 115.7 700 136.3 720 136.2C740 136 760 115 780 106C800 97 820 100 840 103C860 106 880 109 900 120.2C920 131.3 940 150.7 950 160.3L960 170L960 0L950 0C940 0 920 0 900 0C880 0 860 0 840 0C820 0 800 0 780 0C760 0 740 0 720 0C700 0 680 0 660 0C640 0 620 0 600 0C580 0 560 0 540 0C520 0 500 0 480 0C460 0 440 0 420 0C400 0 380 0 360 0C340 0 320 0 300 0C280 0 260 0 240 0C220 0 200 0 180 0C160 0 140 0 120 0C100 0 80 0 60 0C40 0 20 0 10 0L0 0Z" fill="#6d3f71"></path><path d="M0 78L10 78.8C20 79.7 40 81.3 60 77.7C80 74 100 65 120 59.3C140 53.7 160 51.3 180 53.3C200 55.3 220 61.7 240 63.8C260 66 280 64 300 61.2C320 58.3 340 54.7 360 62.2C380 69.7 400 88.3 420 98.5C440 108.7 460 110.3 480 101.8C500 93.3 520 74.7 540 74.8C560 75 580 94 600 93.5C620 93 640 73 660 75.2C680 77.3 700 101.7 720 109.7C740 117.7 760 109.3 780 98C800 86.7 820 72.3 840 69C860 65.7 880 73.3 900 80.7C920 88 940 95 950 98.5L960 102L960 0L950 0C940 0 920 0 900 0C880 0 860 0 840 0C820 0 800 0 780 0C760 0 740 0 720 0C700 0 680 0 660 0C640 0 620 0 600 0C580 0 560 0 540 0C520 0 500 0 480 0C460 0 440 0 420 0C400 0 380 0 360 0C340 0 320 0 300 0C280 0 260 0 240 0C220 0 200 0 180 0C160 0 140 0 120 0C100 0 80 0 60 0C40 0 20 0 10 0L0 0Z" fill="#393758"></path><path d="M0 21L10 19.5C20 18 40 15 60 18.3C80 21.7 100 31.3 120 33.3C140 35.3 160 29.7 180 35.2C200 40.7 220 57.3 240 58.8C260 60.3 280 46.7 300 44.2C320 41.7 340 50.3 360 46.5C380 42.7 400 26.3 420 28.5C440 30.7 460 51.3 480 58.5C500 65.7 520 59.3 540 57.2C560 55 580 57 600 55.8C620 54.7 640 50.3 660 47.3C680 44.3 700 42.7 720 49C740 55.3 760 69.7 780 71.8C800 74 820 64 840 61.3C860 58.7 880 63.3 900 67.3C920 71.3 940 74.7 950 76.3L960 78L960 0L950 0C940 0 920 0 900 0C880 0 860 0 840 0C820 0 800 0 780 0C760 0 740 0 720 0C700 0 680 0 660 0C640 0 620 0 600 0C580 0 560 0 540 0C520 0 500 0 480 0C460 0 440 0 420 0C400 0 380 0 360 0C340 0 320 0 300 0C280 0 260 0 240 0C220 0 200 0 180 0C160 0 140 0 120 0C100 0 80 0 60 0C40 0 20 0 10 0L0 0Z" fill="#202731"></path></svg>